<svg width="16" height="16" viewBox="0 0 16 16" fill="none" xmlns="http://www.w3.org/2000/svg">
<path d="M15.8327 7.59562L14.6904 6.4533L8.40443 0.167326C8.1813 -0.0557753 7.81954 -0.0557753 7.59641 0.167326L1.3104 6.4533L0.167503 7.59623C-0.0517478 7.82324 -0.0454864 8.185 0.181532 8.40425C0.402993 8.61814 0.754068 8.61814 0.975529 8.40425L1.14238 8.23623V15.4285C1.14238 15.7442 1.39823 16 1.71384 16H14.2858C14.6014 16 14.8573 15.7442 14.8573 15.4285V8.23623L15.0247 8.40368C15.2517 8.62293 15.6135 8.61664 15.8327 8.38965C16.0466 8.16819 16.0466 7.81708 15.8327 7.59562ZM9.71421 14.8571H6.28549V10.2855H9.71421V14.8571ZM13.7144 14.8571H10.8571V9.71403C10.8571 9.39841 10.6013 9.14256 10.2856 9.14256H5.71403C5.39841 9.14256 5.14256 9.39841 5.14256 9.71403V14.8571H2.28531V7.09334L7.99982 1.3788L13.7144 7.09334V14.8571Z" fill="#C4C4C4"/>
</svg>
